PathFileType	4	(X/Y/Z)	E:\Qualisys_Data\Carbon_Farble_Plate\Data\Amateur_Runner\S2\T3\S2T3V12_c3d.trc
DataRate	CameraRate	NumFrames	NumMarkers	Units	OrigDataRate	OrigDataStartFrame	OrigNumFrames
200.000000	200.000000	4	39	mm	200.000000	237	316
Frame#	Time	LSHO			RSHO			LICST			RICST			LASIS			LHEEL			RASIS			LTROC			RTROC			SACR			LTH1			LSK4			LTH2			LTH3			RHM5			LSK2			LTH4			RTH1			LTOE			RTH2			RTH3			RTH4			LLEP			RLEP			LSK1			LSK3			RSK1			LHM5			RSK2			LFT1			RSK3			RSK4			LLME			RLME			RTOE			RHEEL			RFT1			RFT2			LFT2			
		X1	Y1	Z1	X2	Y2	Z2	X3	Y3	Z3	X4	Y4	Z4	X5	Y5	Z5	X6	Y6	Z6	X7	Y7	Z7	X8	Y8	Z8	X9	Y9	Z9	X10	Y10	Z10	X11	Y11	Z11	X12	Y12	Z12	X13	Y13	Z13	X14	Y14	Z14	X15	Y15	Z15	X16	Y16	Z16	X17	Y17	Z17	X18	Y18	Z18	X19	Y19	Z19	X20	Y20	Z20	X21	Y21	Z21	X22	Y22	Z22	X23	Y23	Z23	X24	Y24	Z24	X25	Y25	Z25	X26	Y26	Z26	X27	Y27	Z27	X28	Y28	Z28	X29	Y29	Z29	X30	Y30	Z30	X31	Y31	Z31	X32	Y32	Z32	X33	Y33	Z33	X34	Y34	Z34	X35	Y35	Z35	X36	Y36	Z36	X37	Y37	Z37	X38	Y38	Z38	X39	Y39	Z39	

238	1.185	1508.2216796875	1417.3056640625	-517.9442138671875	1589.782836914062	1398.668701171875	-213.7751159667969	1489.244873046875	966.432861328125	-488.4414978027344	1517.75390625	953.980224609375	-187.7213745117188	1553.504516601562	923.6282348632812	-471.0056457519531	1525.6181640625	75.991943359375	-345.8655090332031	1575.4462890625	907.0132446289062	-212.3087005615234	1437.695190429688	836.9086303710938	-490.8748779296875	1421.499633789062	860.352783203125	-177.9116058349609	1408.197021484375	999.495361328125	-330.13916015625	1638.7216796875	635.1363525390625	-472.2489318847656	1570.72314453125	250.6090545654297	-440.8627319335938	1560.487182617188	606.938232421875	-482.0446472167969	1668.305419921875	540.6203002929688	-447.4539489746094	959.5661010742188	290.44091796875	-165.1510162353516	1584.568359375	347.6354675292969	-458.3659362792969	1588.76513671875	514.6033325195312	-453.100341796875	1495.6474609375	585.5221557617188	-151.6894989013672	1766.634399414062	79.29827880859375	-361.1518859863281	1421.029052734375	603.3995971679688	-156.3669586181641	1472.849609375	487.22607421875	-155.6816864013672	1396.034057617188	507.7978820800781	-166.5038146972656	1637.534057617188	480.2670288085938	-445.7552490234375	1411.940551757812	475.0179443359375	-151.4915771484375	1660.990966796875	339.2957763671875	-441.1698303222656	1649.113037109375	241.0923309326172	-427.6756286621094	1314.095947265625	408.0695495605469	-149.8093414306641	1707.588989257812	59.52805709838867	-421.0241088867188	1300.119018554688	487.8883666992188	-153.2154541015625	1534.820190429688	48.55408096313477	-316.2053527832031	1213.9296875	389.8970031738281	-163.3319396972656	1203.964477539062	468.3927612304688	-170.0940551757812	1585.992553710938	82.01314544677734	-401.3919982910156	1030.122192382812	400.5093383789062	-206.5046081542969	973.7951049804688	211.9872741699219	-201.8875427246094	1034.03515625	445.6111450195312	-277.5445861816406	1010.863464355469	429.2555541992188	-308.0085144042969	1005.285278320312	455.7441101074219	-262.53515625	1528.703491210938	42.0444221496582	-368.3355712890625
239	1.19	1524.414916992188	1412.018676757812	-519.2671508789062	1604.585815429688	1393.492797851562	-213.6420593261719	1503.26025390625	961.55126953125	-488.92919921875	1532.856079101562	948.0400390625	-186.7505340576172	1567.525024414062	919.1139526367188	-471.2505493164062	1526.443115234375	77.07156372070312	-346.6033325195312	1590.417236328125	901.607421875	-212.3942565917969	1452.664794921875	832.1613159179688	-490.1438293457031	1437.563232421875	853.0440063476562	-176.9934997558594	1422.769165039062	993.531982421875	-328.9975280761719	1654.367065429688	630.4304809570312	-473.1127624511719	1581.025268554688	252.0217590332031	-439.9306335449219	1576.56884765625	601.9561767578125	-481.2626037597656	1684.338745117188	536.8438110351562	-445.1679992675781	981.3395385742188	293.4463195800781	-165.4503326416016	1598.324096679688	348.1841430664062	-456.9041442871094	1605.497802734375	509.9703674316406	-451.8761291503906	1516.44091796875	579.80712890625	-151.1304779052734	1768.542236328125	74.380615234375	-363.3529968261719	1441.034790039062	596.2929077148438	-155.8899536132812	1495.274291992188	481.0103149414062	-154.7781982421875	1418.080444335938	500.39013671875	-164.6853179931641	1655.366333007812	476.7686157226562	-443.427978515625	1434.541137695312	468.618408203125	-149.9060516357422	1674.301879882812	336.9590148925781	-437.6939697265625	1657.84912109375	239.1410064697266	-425.2343444824219	1336.608154296875	403.5742797851562	-149.1105804443359	1710.429565429688	58.96841430664062	-420.6580505371094	1323.990478515625	483.8144226074219	-151.7158508300781	1535.39013671875	49.92401885986328	-316.4324035644531	1236.66796875	387.3767395019531	-162.6921234130859	1227.76513671875	466.0464172363281	-169.1131134033203	1587.762573242188	82.58981323242188	-400.6351318359375	1053.1669921875	402.5345764160156	-206.8536834716797	995.13916015625	214.9656066894531	-202.2906951904297	1057.859619140625	447.8478698730469	-277.6517639160156	1034.9296875	431.48583984375	-308.2134094238281	1028.94189453125	458.1203918457031	-263.5679016113281	1529.454467773438	43.08794403076172	-368.0243530273438
240	1.195	1540.9990234375	1406.853271484375	-520.525634765625	1619.7080078125	1388.745849609375	-213.5054321289062	1517.54833984375	956.2080688476562	-489.6224365234375	1547.078125	941.9361572265624	-186.1464385986328	1581.379272460938	915.4430541992188	-471.1022338867188	1528.400756835938	78.36295318603516	-345.6867980957031	1605.04931640625	896.1421508789062	-212.5204010009766	1466.815795898438	828.2305908203125	-489.4824523925781	1453.550415039062	845.0914306640625	-176.7201995849609	1436.684204101562	987.6800537109376	-328.4461975097656	1669.6171875	626.835205078125	-472.3859252929688	1590.653564453125	253.2746124267578	-439.4047241210938	1593.302368164062	597.2681274414062	-480.7494812011719	1701.680297851562	532.5650024414062	-439.9260864257812	1003.829650878906	295.8963012695312	-165.5875701904297	1614.087768554688	350.2933044433594	-458.2230834960938	1622.50830078125	505.5481567382812	-450.1535949707031	1537.03759765625	574.2879028320312	-150.2265625	1771.548583984375	72.25452423095703	-363.9468078613281	1461.387329101562	589.1239013671875	-154.8043975830078	1517.561279296875	474.9775390625	-153.8258361816406	1439.9677734375	493.1077270507812	-162.9328155517578	1673.188232421875	473.5284729003906	-440.5070495605469	1457.617553710938	460.8379211425781	-149.3383178710938	1686.973510742188	334.2704162597656	-434.4067077636719	1666.620239257812	237.5279541015625	-422.3766479492188	1359.720458984375	399.578125	-148.4410095214844	1712.314331054688	57.67296600341797	-421.2355346679688	1347.989379882812	479.7646484375	-150.4066925048828	1536.833740234375	50.72055435180664	-315.89404296875	1259.364624023438	384.7923278808594	-162.8230133056641	1251.929443359375	463.6183471679688	-168.6841888427734	1590.315307617188	83.74584197998047	-399.9537353515625	1076.775634765625	404.5208435058594	-206.8584594726562	1017.300231933594	216.9873199462891	-202.8699951171875	1081.958129882812	449.4820251464844	-277.7007141113281	1058.833129882812	433.0849304199219	-308.7315368652344	1053.247192382812	460.1094055175781	-263.5086059570312	1530.729125976562	44.90972900390625	-367.7327575683594
241	1.2	1557.351684570312	1402.506469726562	-522.1094970703125	1634.522216796875	1384.232177734375	-213.0005645751953	1531.18701171875	951.8501586914062	-490.2343444824219	1561.842529296875	936.6044311523438	-185.1635437011719	1594.924194335938	911.7210693359376	-471.342041015625	1530.029907226562	80.20807647705078	-344.6189270019531	1619.368286132812	891.1485595703125	-212.3731994628906	1480.743530273438	825.7776489257812	-488.8515319824219	1469.45849609375	837.3038940429688	-176.4369659423828	1450.619506835938	981.6520385742188	-328.0088195800781	1686.32470703125	623.1109619140625	-468.1576843261719	1601.56494140625	255.3528900146484	-440.2115783691406	1611.170288085938	592.825439453125	-480.929931640625	1718.461303710938	529.3438720703125	-436.4013366699219	1027.158935546875	297.2736511230469	-166.3068695068359	1627.5966796875	350.675537109375	-457.040771484375	1639.716430664062	501.4569396972656	-448.610595703125	1557.472778320312	568.3662109375	-150.2156372070312	1774.63720703125	70.92744445800781	-361.7988891601562	1482.294311523438	582.8568115234375	-154.1670989990234	1540.433349609375	469.646484375	-153.3566589355469	1462.315063476562	486.2518920898438	-161.4371337890625	1691.046997070312	471.1681823730469	-438.0548095703125	1481.061767578125	455.5321044921875	-147.2183685302734	1699.84716796875	332.3402404785156	-431.7738037109375	1675.407836914062	236.6309967041016	-418.9659423828125	1383.17138671875	395.4767761230469	-148.3392791748047	1713.896362304688	56.30356597900391	-421.2846069335938	1373.077026367188	476.2916870117188	-149.1750335693359	1537.968994140625	51.48620986938477	-314.9510803222656	1282.573608398438	382.011474609375	-162.9635772705078	1276.39404296875	461.55712890625	-168.1998138427734	1593.46728515625	84.4997787475586	-398.8181457519531	1101.033813476562	405.7530517578125	-206.7424774169922	1040.654907226562	218.5113220214844	-204.3126068115234	1106.51318359375	450.9790344238281	-277.9369812011719	1083.638916015625	434.6557922363281	-309.3257141113281	1077.84814453125	461.3630981445312	-264.1276550292969	1531.845825195312	47.20234680175781	-367.2187805175781
